<svg width="32" height="32" viewBox="0 0 32 32" fill="none" xmlns="http://www.w3.org/2000/svg">
<path d="M12.0013 29.3334H20.0013C26.668 29.3334 29.3346 26.6667 29.3346 20.0001V12.0001C29.3346 5.33341 26.668 2.66675 20.0013 2.66675H12.0013C5.33464 2.66675 2.66797 5.33341 2.66797 12.0001V20.0001C2.66797 26.6667 5.33464 29.3334 12.0013 29.3334Z" stroke="#171717" stroke-width="1.5" stroke-linecap="round" stroke-linejoin="round"/>
<path d="M23.8661 12.0667C20.9595 11.7734 18.0261 11.6267 15.1061 11.6267C13.3728 11.6267 11.6395 11.72 9.91947 11.8934L8.13281 12.0667" stroke="#171717" stroke-width="1.5" stroke-linecap="round" stroke-linejoin="round"/>
<path d="M12.9453 11.1867L13.132 10.04C13.2653 9.21333 13.372 8.58667 14.852 8.58667H17.1453C18.6253 8.58667 18.732 9.24 18.8653 10.04L19.052 11.1733" stroke="#171717" stroke-width="1.5" stroke-linecap="round" stroke-linejoin="round"/>
<path d="M21.9867 12.1733L21.4133 20.9733C21.32 22.3467 21.24 23.4133 18.8 23.4133H13.1867C10.7467 23.4133 10.6667 22.3467 10.5733 20.9733L10 12.1733" stroke="#171717" stroke-width="1.5" stroke-linecap="round" stroke-linejoin="round"/>
</svg>
