<svg width="32" height="32" viewBox="0 0 32 32" fill="none" xmlns="http://www.w3.org/2000/svg">
<path d="M15.9583 2.6665C8.59833 2.6665 2.625 8.63984 2.625 15.9998C2.625 23.3598 8.59833 29.3332 15.9583 29.3332C23.3183 29.3332 29.2917 23.3598 29.2917 15.9998C29.2917 8.63984 23.3317 2.6665 15.9583 2.6665ZM19.9583 18.9732L16.0917 21.1998C15.6117 21.4798 15.0783 21.6132 14.5583 21.6132C14.025 21.6132 13.505 21.4798 13.025 21.1998C12.065 20.6398 11.4917 19.6532 11.4917 18.5332V14.0665C11.4917 12.9598 12.065 11.9598 13.025 11.3998C13.985 10.8398 15.1317 10.8398 16.105 11.3998L19.9717 13.6265C20.9317 14.1865 21.505 15.1732 21.505 16.2932C21.505 17.4132 20.9317 18.4132 19.9583 18.9732Z" fill="#171717"/>
</svg>
